<svg xmlns="http://www.w3.org/2000/svg" xmlns:xlink="http://www.w3.org/1999/xlink" width="288.511" height="53.291" viewBox="0 0 288.511 53.291"><defs><clipPath id="clip-path"><rect id="Rectangle_599" data-name="Rectangle 599" width="46.999" height="53.291" fill="#fff"></rect></clipPath></defs><g id="Group_163" data-name="Group 163" transform="translate(-15956 977.782)"><path id="Path_35" data-name="Path 35" d="M12.1-3.831,4.593-20.179V-7.2A3.975,3.975,0,0,0,4.98-4.963a2.124,2.124,0,0,0,1.676.6h.688v.53H.581v-.53h.688a1.974,1.974,0,0,0,1.748-.745A4.348,4.348,0,0,0,3.332-7.2V-19.892a4.439,4.439,0,0,0-.287-1.863,1.59,1.59,0,0,0-.738-.695,3.958,3.958,0,0,0-1.727-.279v-.53h5.5l7.049,15.2,6.935-15.2h5.5v.53H24.9a1.99,1.99,0,0,0-1.762.745,4.348,4.348,0,0,0-.315,2.092V-7.2a3.855,3.855,0,0,0,.4,2.235,2.124,2.124,0,0,0,1.676.6h.673v.53H17.316v-.53H18a1.952,1.952,0,0,0,1.748-.745A4.348,4.348,0,0,0,20.067-7.2V-20.179L12.573-3.831Zm39.247-6.5H43.825L42.507-7.27a4.854,4.854,0,0,0-.487,1.691.982.982,0,0,0,.423.781,3.693,3.693,0,0,0,1.827.437v.53H38.151v-.53a3.3,3.3,0,0,0,1.576-.559,8.777,8.777,0,0,0,1.619-2.794L48.181-23.7h.5L55.445-7.542a7.367,7.367,0,0,0,1.483,2.529,3.023,3.023,0,0,0,1.855.652v.53H51.118v-.53a2.874,2.874,0,0,0,1.569-.387,1,1,0,0,0,.408-.8,5.94,5.94,0,0,0-.573-1.992Zm-.4-1.06-3.3-7.852L44.269-11.4ZM90.68-3.831H85.493l-6.576-9.084q-.731.029-1.189.029-.186,0-.4-.007t-.444-.021V-7.27a3.967,3.967,0,0,0,.4,2.278,2.041,2.041,0,0,0,1.633.63h.759v.53H71.352v-.53h.731a1.954,1.954,0,0,0,1.762-.8,4.523,4.523,0,0,0,.3-2.106V-19.821a3.967,3.967,0,0,0-.4-2.278,2.1,2.1,0,0,0-1.662-.63h-.731v-.53H78.43a16.832,16.832,0,0,1,4.563.451,5.221,5.221,0,0,1,2.493,1.662,4.324,4.324,0,0,1,1.024,2.887,4.536,4.536,0,0,1-1.168,3.109,6.6,6.6,0,0,1-3.618,1.863l4.012,5.574A9.969,9.969,0,0,0,88.1-5.163a5.955,5.955,0,0,0,2.579.8Zm-13.8-9.986q.272,0,.473.007t.33.007a6.313,6.313,0,0,0,4.191-1.2,3.852,3.852,0,0,0,1.411-3.066,4,4,0,0,0-1.139-2.959,4.077,4.077,0,0,0-3.016-1.139,12.645,12.645,0,0,0-2.249.272Zm34.332,9.456v.53H102.89v-.53h.688a2.075,2.075,0,0,0,1.748-.7,4.363,4.363,0,0,0,.344-2.206V-19.821a6.433,6.433,0,0,0-.186-1.949,1.291,1.291,0,0,0-.587-.616,2.716,2.716,0,0,0-1.318-.344h-.688v-.53h8.324v.53h-.7a2.057,2.057,0,0,0-1.734.7,4.211,4.211,0,0,0-.358,2.206V-7.27a6.433,6.433,0,0,0,.186,1.949,1.283,1.283,0,0,0,.6.616,2.636,2.636,0,0,0,1.3.344Zm29.432-18.9.215,4.556h-.544a5.5,5.5,0,0,0-.43-1.719,2.876,2.876,0,0,0-1.182-1.225,4.122,4.122,0,0,0-1.941-.394h-2.737V-7.2a3.975,3.975,0,0,0,.387,2.235,2.151,2.151,0,0,0,1.676.6h.673v.53h-8.239v-.53h.688a1.974,1.974,0,0,0,1.748-.745,4.348,4.348,0,0,0,.315-2.092V-22.042h-2.335a6.512,6.512,0,0,0-1.934.2,2.656,2.656,0,0,0-1.275,1.046,4.235,4.235,0,0,0-.63,2.092h-.544l.229-4.556Zm21.738,18.9v.53h-8.324v-.53h.688a2.075,2.075,0,0,0,1.748-.7,4.363,4.363,0,0,0,.344-2.206V-19.821a6.433,6.433,0,0,0-.186-1.949,1.291,1.291,0,0,0-.587-.616,2.716,2.716,0,0,0-1.318-.344h-.688v-.53h8.324v.53h-.7a2.057,2.057,0,0,0-1.734.7,4.211,4.211,0,0,0-.358,2.206V-7.27a6.433,6.433,0,0,0,.186,1.949,1.283,1.283,0,0,0,.6.616,2.636,2.636,0,0,0,1.3.344Zm24.46.53-7.508-16.348V-7.2a3.975,3.975,0,0,0,.387,2.235,2.124,2.124,0,0,0,1.676.6h.688v.53h-6.763v-.53h.688a1.974,1.974,0,0,0,1.748-.745,4.348,4.348,0,0,0,.315-2.092V-19.892a4.44,4.44,0,0,0-.287-1.863,1.59,1.59,0,0,0-.738-.695,3.958,3.958,0,0,0-1.727-.279v-.53h5.5l7.049,15.2,6.935-15.2h5.5v.53h-.673a1.99,1.99,0,0,0-1.762.745,4.347,4.347,0,0,0-.315,2.092V-7.2a3.855,3.855,0,0,0,.4,2.235,2.124,2.124,0,0,0,1.676.6h.673v.53h-8.253v-.53h.688a1.952,1.952,0,0,0,1.748-.745,4.348,4.348,0,0,0,.315-2.092V-20.179L187.318-3.831ZM218.8-22.2v7.68h4.27a3.481,3.481,0,0,0,2.221-.5,3.227,3.227,0,0,0,.831-2.321h.53v6.763h-.53a7.394,7.394,0,0,0-.4-1.82,1.793,1.793,0,0,0-.845-.788,4.316,4.316,0,0,0-1.805-.287H218.8v6.4a5.948,5.948,0,0,0,.115,1.569.9.9,0,0,0,.4.444,2.436,2.436,0,0,0,1.089.165h3.3a8.928,8.928,0,0,0,2.393-.229,3.569,3.569,0,0,0,1.433-.9,11.026,11.026,0,0,0,1.82-2.679h.573l-1.676,4.871H213.269v-.53h.688a2.725,2.725,0,0,0,1.3-.33,1.205,1.205,0,0,0,.623-.688,6.743,6.743,0,0,0,.165-1.877V-19.878a4.178,4.178,0,0,0-.373-2.278,2.219,2.219,0,0,0-1.719-.573h-.688v-.53h14.973L228.456-19H227.9a6.714,6.714,0,0,0-.666-2.106,2.288,2.288,0,0,0-1.082-.874,6.49,6.49,0,0,0-2.02-.215Z" transform="translate(16014.593 -950.659)" fill="#e9732a"></path><path id="Path_34" data-name="Path 34" d="M9.191-12.19l.228,3.4H9.191a4.275,4.275,0,0,0-1.3-2.2,3.177,3.177,0,0,0-2.034-.671,3.309,3.309,0,0,0-1.8.5,3.339,3.339,0,0,0-1.264,1.61A7.171,7.171,0,0,0,2.33-6.8a5.836,5.836,0,0,0,.435,2.351A3.257,3.257,0,0,0,4.073-2.921a3.762,3.762,0,0,0,1.993.531,3.457,3.457,0,0,0,1.717-.416A5.659,5.659,0,0,0,9.419-4.461l.228.147A5.246,5.246,0,0,1,7.894-2.361a4.439,4.439,0,0,1-2.38.619A4.505,4.505,0,0,1,1.667-3.584,5.267,5.267,0,0,1,.65-6.811,5.731,5.731,0,0,1,1.321-9.56,4.852,4.852,0,0,1,3.167-11.5a4.987,4.987,0,0,1,2.568-.689,4.706,4.706,0,0,1,2.137.531,1.159,1.159,0,0,0,.442.162.486.486,0,0,0,.346-.14,1.148,1.148,0,0,0,.273-.553Zm16.308,0a4.532,4.532,0,0,1,3.371,1.477A5.1,5.1,0,0,1,30.3-7.025a5.253,5.253,0,0,1-1.437,3.78,4.634,4.634,0,0,1-3.478,1.5,4.608,4.608,0,0,1-3.467-1.466A5.261,5.261,0,0,1,20.51-7a5.055,5.055,0,0,1,1.621-3.883A4.782,4.782,0,0,1,25.5-12.19Zm-.14.538a2.636,2.636,0,0,0-2.152.995A5.624,5.624,0,0,0,22.2-7.032a5.935,5.935,0,0,0,1.046,3.765,2.585,2.585,0,0,0,2.122,1,2.9,2.9,0,0,0,2.325-1.1,5.354,5.354,0,0,0,.917-3.463A6.049,6.049,0,0,0,27.6-10.65,2.723,2.723,0,0,0,25.359-11.653Zm20.847-.538a4.532,4.532,0,0,1,3.371,1.477A5.1,5.1,0,0,1,51-7.025a5.253,5.253,0,0,1-1.437,3.78,4.634,4.634,0,0,1-3.478,1.5,4.608,4.608,0,0,1-3.467-1.466A5.261,5.261,0,0,1,41.217-7a5.055,5.055,0,0,1,1.621-3.883A4.782,4.782,0,0,1,46.206-12.19Zm-.14.538a2.636,2.636,0,0,0-2.152.995A5.624,5.624,0,0,0,42.9-7.032a5.934,5.934,0,0,0,1.046,3.765,2.585,2.585,0,0,0,2.122,1,2.9,2.9,0,0,0,2.325-1.1,5.354,5.354,0,0,0,.917-3.463,6.049,6.049,0,0,0-1.009-3.824A2.723,2.723,0,0,0,46.066-11.653ZM65.9-7.511l3.684,3.662a6.727,6.727,0,0,0,1.547,1.234,3.3,3.3,0,0,0,1.282.372v.273H67.665v-.273a1.027,1.027,0,0,0,.615-.144.406.406,0,0,0,.188-.321.7.7,0,0,0-.07-.317,2.808,2.808,0,0,0-.461-.523L64.489-6.959v3.22a3.309,3.309,0,0,0,.1,1,.66.66,0,0,0,.309.317,1.355,1.355,0,0,0,.671.177H65.9v.273H61.645v-.273H62a1.067,1.067,0,0,0,.9-.361,2.244,2.244,0,0,0,.177-1.135v-6.455a3.39,3.39,0,0,0-.1-1.009.673.673,0,0,0-.3-.309A1.4,1.4,0,0,0,62-11.689h-.354v-.273H65.9v.273h-.339a1.43,1.43,0,0,0-.671.169.639.639,0,0,0-.317.354,3.367,3.367,0,0,0-.088.973v3.058q.147-.14,1.009-.936a22.166,22.166,0,0,0,2.645-2.675.966.966,0,0,0,.2-.516.381.381,0,0,0-.155-.3.824.824,0,0,0-.523-.129h-.228v-.273h3.67v.273a2.184,2.184,0,0,0-.589.088,3.027,3.027,0,0,0-.648.313,6.35,6.35,0,0,0-.943.748q-.162.147-1.5,1.511ZM100.34-2.243v.273H96.059v-.273h.354a1.067,1.067,0,0,0,.9-.361,2.244,2.244,0,0,0,.177-1.135v-6.455a3.308,3.308,0,0,0-.1-1,.664.664,0,0,0-.3-.317,1.4,1.4,0,0,0-.678-.177h-.354v-.273h4.281v.273h-.361a1.058,1.058,0,0,0-.892.361,2.166,2.166,0,0,0-.184,1.135v6.455a3.308,3.308,0,0,0,.1,1,.66.66,0,0,0,.309.317,1.355,1.355,0,0,0,.671.177Zm17.1-9.948v3.456h-.273a4.305,4.305,0,0,0-.475-1.584,2.473,2.473,0,0,0-.976-.936A2.7,2.7,0,0,0,114.4-11.6a1.784,1.784,0,0,0-1.267.468,1.424,1.424,0,0,0-.5,1.065,1.261,1.261,0,0,0,.317.833,8.146,8.146,0,0,0,2.174,1.474,15.021,15.021,0,0,1,1.912,1.153,2.813,2.813,0,0,1,.788.947A2.5,2.5,0,0,1,118.1-4.52a2.586,2.586,0,0,1-.881,1.956,3.189,3.189,0,0,1-2.266.822,4.8,4.8,0,0,1-.818-.066,8.35,8.35,0,0,1-.947-.269,4.246,4.246,0,0,0-.91-.232.386.386,0,0,0-.291.111.88.88,0,0,0-.158.457h-.273V-5.168h.273a4.843,4.843,0,0,0,.516,1.61,2.477,2.477,0,0,0,.991.888,3.073,3.073,0,0,0,1.463.354,2.08,2.08,0,0,0,1.455-.486,1.506,1.506,0,0,0,.534-1.15,1.559,1.559,0,0,0-.2-.744,2.218,2.218,0,0,0-.63-.7,18.069,18.069,0,0,0-1.57-.939,15.225,15.225,0,0,1-1.824-1.146,3.09,3.09,0,0,1-.822-.943,2.34,2.34,0,0,1-.28-1.135,2.46,2.46,0,0,1,.825-1.853,2.94,2.94,0,0,1,2.1-.777,4.213,4.213,0,0,1,1.687.391,1.736,1.736,0,0,0,.582.184.439.439,0,0,0,.313-.114.912.912,0,0,0,.2-.461ZM137.37-4.733l.243.052-.855,2.712h-7.737v-.273h.376a1,1,0,0,0,.906-.413,2.379,2.379,0,0,0,.155-1.091v-6.448a2.062,2.062,0,0,0-.206-1.172,1.083,1.083,0,0,0-.855-.324h-.376v-.273h4.524v.273a2.761,2.761,0,0,0-1.116.147.9.9,0,0,0-.438.391,3.215,3.215,0,0,0-.118,1.127v6.278a2.042,2.042,0,0,0,.118.84.527.527,0,0,0,.273.228,4.784,4.784,0,0,0,1.15.074h.729a5.285,5.285,0,0,0,1.614-.169,2.1,2.1,0,0,0,.847-.6A4.922,4.922,0,0,0,137.37-4.733Zm17.281-.582h-3.869L150.1-3.739a2.5,2.5,0,0,0-.251.869.505.505,0,0,0,.217.4,1.9,1.9,0,0,0,.939.225v.273h-3.146v-.273a1.7,1.7,0,0,0,.811-.287,4.514,4.514,0,0,0,.833-1.437l3.515-8.223h.258l3.478,8.312a3.789,3.789,0,0,0,.763,1.3,1.555,1.555,0,0,0,.954.335v.273h-3.942v-.273a1.478,1.478,0,0,0,.807-.2.513.513,0,0,0,.21-.413,3.055,3.055,0,0,0-.295-1.024Zm-.206-.545L152.75-9.9l-1.739,4.038Zm13.81-6.1h2.712l6.109,7.494V-10.23a1.983,1.983,0,0,0-.206-1.149,1.092,1.092,0,0,0-.862-.309h-.346v-.273h3.478v.273h-.354a1.015,1.015,0,0,0-.9.383,2.236,2.236,0,0,0-.162,1.076v8.422h-.265l-6.588-8.047V-3.7a2.045,2.045,0,0,0,.2,1.15,1.106,1.106,0,0,0,.862.309h.354v.273h-3.478v-.273h.346a1.024,1.024,0,0,0,.906-.383,2.236,2.236,0,0,0,.162-1.076V-10.65a4.553,4.553,0,0,0-.66-.671,2.421,2.421,0,0,0-.659-.3,2.349,2.349,0,0,0-.648-.066ZM189.419-1.97v-.273h.376a.993.993,0,0,0,.9-.405,2.309,2.309,0,0,0,.162-1.091v-6.455a2.063,2.063,0,0,0-.206-1.172,1.083,1.083,0,0,0-.855-.324h-.376v-.273h4.067a8.882,8.882,0,0,1,3.408.508,4.055,4.055,0,0,1,1.879,1.695,5.228,5.228,0,0,1,.711,2.741,5,5,0,0,1-1.267,3.485,5.575,5.575,0,0,1-4.333,1.562Zm2.852-.722a7.526,7.526,0,0,0,1.57.206,3.726,3.726,0,0,0,2.837-1.2A4.567,4.567,0,0,0,197.8-6.944a4.562,4.562,0,0,0-1.127-3.264,3.806,3.806,0,0,0-2.9-1.194,6.257,6.257,0,0,0-1.511.214Zm24.517-9.5v3.456h-.273a4.305,4.305,0,0,0-.475-1.584,2.473,2.473,0,0,0-.976-.936,2.7,2.7,0,0,0-1.312-.346,1.784,1.784,0,0,0-1.267.468,1.424,1.424,0,0,0-.5,1.065,1.261,1.261,0,0,0,.317.833,8.147,8.147,0,0,0,2.174,1.474,15.021,15.021,0,0,1,1.912,1.153,2.812,2.812,0,0,1,.788.947,2.5,2.5,0,0,1,.276,1.142,2.586,2.586,0,0,1-.881,1.956,3.189,3.189,0,0,1-2.266.822,4.8,4.8,0,0,1-.818-.066,8.35,8.35,0,0,1-.947-.269,4.246,4.246,0,0,0-.91-.232.386.386,0,0,0-.291.111.88.88,0,0,0-.158.457h-.273V-5.168h.273a4.843,4.843,0,0,0,.516,1.61,2.478,2.478,0,0,0,.991.888,3.073,3.073,0,0,0,1.463.354A2.08,2.08,0,0,0,215.6-2.8a1.506,1.506,0,0,0,.534-1.15,1.559,1.559,0,0,0-.2-.744,2.218,2.218,0,0,0-.63-.7,18.062,18.062,0,0,0-1.57-.939,15.226,15.226,0,0,1-1.824-1.146,3.091,3.091,0,0,1-.822-.943,2.34,2.34,0,0,1-.28-1.135,2.46,2.46,0,0,1,.825-1.853,2.94,2.94,0,0,1,2.1-.777,4.213,4.213,0,0,1,1.687.391,1.736,1.736,0,0,0,.582.184.439.439,0,0,0,.313-.114.911.911,0,0,0,.2-.461Z" transform="translate(16019.612 -932.399)" fill="#fff"></path><g id="Group_164" data-name="Group 164" transform="translate(15956 -977.782)"><g id="Group_163-2" data-name="Group 163" clip-path="url(#clip-path)"><path id="Path_33" data-name="Path 33" d="M42.973,26.645a19.382,19.382,0,0,0-2.2-8.993L47,14.056l-.848-1.468-6.229,3.6A19.455,19.455,0,0,0,24.347,7.193V0H22.652V7.193A19.456,19.456,0,0,0,7.077,16.185l-6.229-3.6L0,14.056l6.228,3.6a19.464,19.464,0,0,0,0,17.987L0,39.234.848,40.7l6.229-3.6A19.455,19.455,0,0,0,22.652,46.1v7.193h1.695V46.1a19.455,19.455,0,0,0,15.575-8.992l6.229,3.6L47,39.234l-6.228-3.6a19.383,19.383,0,0,0,2.2-8.993M24.347,10.782a15.889,15.889,0,0,1,12.46,7.2l-9.049,5.225a5.463,5.463,0,0,0-3.41-1.965Zm-1.695,0V21.243a5.462,5.462,0,0,0-3.41,1.965l-9.049-5.225a15.888,15.888,0,0,1,12.459-7.2M9.343,33.84a15.829,15.829,0,0,1,0-14.389L18.4,24.677a5.412,5.412,0,0,0,0,3.936Zm13.309,8.668a15.888,15.888,0,0,1-12.459-7.2l9.049-5.225a5.462,5.462,0,0,0,3.41,1.965ZM23.5,28.375a1.722,1.722,0,0,1-.848-.223v.176a1.885,1.885,0,0,1-.187-.107l.153-.088a1.728,1.728,0,0,1-.848-1.468l-.152.088c0-.036-.005-.071-.005-.107s0-.071.005-.107l.152.088a1.728,1.728,0,0,1,.848-1.468l-.153-.088a1.886,1.886,0,0,1,.187-.107v.176a1.724,1.724,0,0,1,1.695,0v-.176a1.89,1.89,0,0,1,.187.107l-.154.088a1.727,1.727,0,0,1,.848,1.468l.152-.088c0,.036.005.071.005.107s0,.072-.005.107l-.152-.088a1.727,1.727,0,0,1-.848,1.467l.154.088a1.889,1.889,0,0,1-.187.107v-.176a1.721,1.721,0,0,1-.847.223m.847,14.133V32.047a5.463,5.463,0,0,0,3.41-1.965l9.049,5.225a15.889,15.889,0,0,1-12.46,7.2M37.656,33.84,28.6,28.613a5.408,5.408,0,0,0,0-3.936l9.053-5.227a15.829,15.829,0,0,1,0,14.389" fill="#fff"></path></g></g></g></svg>